<svg width="50" height="50" viewBox="0 0 50 50" fill="none" xmlns="http://www.w3.org/2000/svg">
<g clip-path="url(#clip0_2_1880)">
<path d="M44.4444 6.94446H5.55556C4.81884 6.94446 4.11231 7.23712 3.59137 7.75805C3.07044 8.27898 2.77778 8.98552 2.77778 9.72224V40.2778C2.77778 41.0145 3.07044 41.721 3.59137 42.242C4.11231 42.7629 4.81884 43.0556 5.55556 43.0556H44.4444C45.1812 43.0556 45.8877 42.7629 46.4086 42.242C46.9296 41.721 47.2222 41.0145 47.2222 40.2778V9.72224C47.2222 8.98552 46.9296 8.27898 46.4086 7.75805C45.8877 7.23712 45.1812 6.94446 44.4444 6.94446ZM5.55556 40.2778V9.72224H44.4444V40.2778H5.55556Z" fill="black"/>
<path d="M21.6944 21.1417L13.3361 33.2889L7.70834 28.3111L9.18056 26.6472L12.9278 29.9611L21.7139 17.1945L31.0889 31.1042L40.4695 18.7083L42.2417 20.05L30.9833 34.9236L21.6944 21.1417Z" fill="black"/>
</g>
<defs>
<clipPath id="clip0_2_1880">
<rect width="50" height="50" fill="white"/>
</clipPath>
</defs>
</svg>
