<svg width="50" height="50" viewBox="0 0 50 50" fill="none" xmlns="http://www.w3.org/2000/svg">
<g clip-path="url(#clip0_2_1927)">
<path d="M41.6667 12.5H22.8056L19.5972 8.08333C19.3386 7.72944 19 7.44178 18.6089 7.24383C18.2179 7.04589 17.7855 6.9433 17.3472 6.94444H8.33334C7.59662 6.94444 6.89008 7.23709 6.36915 7.75803C5.84822 8.27896 5.55556 8.9855 5.55556 9.72221V40.2778C5.55556 41.0145 5.84822 41.721 6.36915 42.242C6.89008 42.7629 7.59662 43.0555 8.33334 43.0555H41.6667C42.4034 43.0555 43.1099 42.7629 43.6309 42.242C44.1518 41.721 44.4444 41.0145 44.4444 40.2778V15.2778C44.4444 14.5411 44.1518 13.8345 43.6309 13.3136C43.1099 12.7927 42.4034 12.5 41.6667 12.5ZM41.6667 40.2778H8.33334V18.0555H18.4861C19.2228 18.0555 19.9294 17.7629 20.4503 17.242C20.9712 16.721 21.2639 16.0145 21.2639 15.2778H8.33334V9.72221H17.3472L20.9722 14.7083C21.1015 14.8853 21.2709 15.0291 21.4664 15.1281C21.6619 15.227 21.8781 15.2783 22.0972 15.2778H41.6667V40.2778Z" fill="black"/>
</g>
<defs>
<clipPath id="clip0_2_1927">
<rect width="50" height="50" fill="white"/>
</clipPath>
</defs>
</svg>
