<svg width="50" height="50" viewBox="0 0 50 50" fill="none" xmlns="http://www.w3.org/2000/svg">
<g clip-path="url(#clip0_2_1862)">
<path d="M45.8333 9.29166C45.5833 4.55555 32.6806 3.27777 25 3.27777C17.3194 3.27777 4.16666 4.56944 4.16666 9.41666V40.7917C4.16666 45.6389 17.2639 46.9444 25 46.9444C32.7361 46.9444 45.8333 45.6528 45.8333 40.7917V9.29166ZM43.0555 19.7917C42.5972 20.9861 36.0278 23.1944 25 23.1944C19.842 23.325 14.6931 22.6885 9.72222 21.3055V24.1944C14.7177 25.4385 19.8523 26.036 25 25.9722C30.5556 25.9722 38.7917 25.3055 43.0555 23.1944V30.375C42.5972 31.5694 36.0278 33.7778 25 33.7778C19.8392 33.8903 14.6903 33.235 9.72222 31.8333V34.7222C14.7177 35.9663 19.8523 36.5638 25 36.5C30.5556 36.5 38.7917 35.8333 43.0555 33.7222V40.8055C42.5694 42 36 44.2083 25 44.2083C14 44.2083 7.36111 41.9444 6.94444 40.7917V9.47222C7.36111 8.33333 13.8889 6.05555 25 6.05555C35.7917 6.05555 42.3055 8.18055 43.0555 9.34722C42.3333 10.5555 35.8194 12.6667 25 12.6667C19.8421 12.7952 14.6935 12.1587 9.72222 10.7778V13.6805C14.7189 14.9169 19.8531 15.5097 25 15.4444C30.5556 15.4444 38.7917 14.7778 43.0555 12.6667V19.7917Z" fill="black"/>
</g>
<defs>
<clipPath id="clip0_2_1862">
<rect width="50" height="50" fill="white"/>
</clipPath>
</defs>
</svg>
