<svg width="50" height="50" viewBox="0 0 50 50" fill="none" xmlns="http://www.w3.org/2000/svg">
<g clip-path="url(#clip0_2_1858)">
<path d="M18.0527 11.6223L10.4808 19.1942C9.93838 19.7366 9.93838 20.616 10.4808 21.1584L11.0406 21.7182C11.583 22.2606 12.4624 22.2606 13.0048 21.7182L20.5767 14.1463C21.1191 13.6039 21.1191 12.7245 20.5767 12.1821L20.0169 11.6223C19.4745 11.0799 18.5951 11.0799 18.0527 11.6223Z" fill="black"/>
<path d="M32.4306 23.3333L33.3056 22.4583C34.6111 21.1597 35.3475 19.3958 35.3527 17.5543C35.3579 15.7129 34.6315 13.9448 33.3333 12.6389L25.9861 5.33332C24.6838 4.03144 22.9178 3.30008 21.0764 3.30008C19.235 3.30008 17.4689 4.03144 16.1667 5.33332L4.29167 17.2083C2.98978 18.5106 2.25843 20.2766 2.25843 22.118C2.25843 23.9595 2.98978 25.7255 4.29167 27.0278L11.5972 34.3333C12.8995 35.6352 14.6655 36.3666 16.5069 36.3666C18.3484 36.3666 20.1144 35.6352 21.4167 34.3333L21.9722 33.7778L25 36.7778H29.7778V40.9444H34.9028V43.2083L38.8889 47.2222H47.2222V38.125L32.4306 23.3333ZM44.4444 44.4444H40.0833L37.625 42V38.1111H32.5139V33.9444H26.1111L21.9444 29.7778L19.4444 32.375C18.6632 33.1553 17.6042 33.5935 16.5 33.5935C15.3958 33.5935 14.3368 33.1553 13.5556 32.375L6.25 25C5.46972 24.2187 5.03144 23.1597 5.03144 22.0555C5.03144 20.9514 5.46972 19.8923 6.25 19.1111L18.1389 7.22221C18.9201 6.44193 19.9792 6.00365 21.0833 6.00365C22.1875 6.00365 23.2465 6.44193 24.0278 7.22221L31.3333 14.5278C32.1136 15.309 32.5519 16.368 32.5519 17.4722C32.5519 18.5764 32.1136 19.6354 31.3333 20.4167L28.5556 23.1944L44.4444 39.2778V44.4444Z" fill="black"/>
</g>
<defs>
<clipPath id="clip0_2_1858">
<rect width="50" height="50" fill="white"/>
</clipPath>
</defs>
</svg>
