<svg width="50" height="50" viewBox="0 0 50 50" fill="none" xmlns="http://www.w3.org/2000/svg">
<g clip-path="url(#clip0_2_1924)">
<path d="M14.6111 47.2222H10.4444C10.2108 47.218 9.98192 47.1549 9.77911 47.0388C9.5763 46.9226 9.40608 46.7572 9.28421 46.5578C9.16234 46.3584 9.09277 46.1314 9.08193 45.8979C9.07109 45.6645 9.11935 45.4321 9.22222 45.2222L17.4306 29.1667H8.33333C8.08303 29.1687 7.83682 29.1032 7.62073 28.9768C7.40464 28.8505 7.22671 28.6681 7.10576 28.449C6.9848 28.2298 6.92531 27.9821 6.93359 27.7319C6.94187 27.4817 7.0176 27.2384 7.15277 27.0278L21.9861 3.41666C22.1077 3.22687 22.2737 3.06953 22.4697 2.95822C22.6657 2.84691 22.8858 2.78498 23.1111 2.77777H41.7639C42.0412 2.76465 42.3161 2.83495 42.5531 2.97959C42.7901 3.12424 42.9783 3.3366 43.0934 3.58925C43.2085 3.84191 43.2453 4.12326 43.1989 4.39701C43.1526 4.67075 43.0252 4.92432 42.8333 5.12499L30.25 19.4444H37.7222C37.9868 19.45 38.2442 19.531 38.4643 19.678C38.6843 19.8249 38.8578 20.0317 38.9643 20.2739C39.0709 20.5161 39.106 20.7837 39.0655 21.0452C39.0251 21.3067 38.9108 21.5512 38.7361 21.75L15.6389 46.75C15.5103 46.8964 15.3523 47.0141 15.1752 47.0955C14.9982 47.1768 14.806 47.22 14.6111 47.2222ZM12.75 44.4444H14.0139L34.5278 22.2222H27.2083C26.931 22.2353 26.6561 22.165 26.4191 22.0204C26.1821 21.8757 25.9939 21.6634 25.8788 21.4107C25.7637 21.1581 25.7269 20.8767 25.7733 20.603C25.8197 20.3292 25.947 20.0757 26.1389 19.875L38.7222 5.55554H23.875L10.7917 26.3889H19.7222C19.9559 26.3931 20.1847 26.4562 20.3875 26.5723C20.5904 26.6884 20.7606 26.8539 20.8824 27.0533C21.0043 27.2527 21.0739 27.4797 21.0847 27.7131C21.0956 27.9466 21.0473 28.179 20.9444 28.3889L12.75 44.4444Z" fill="black"/>
</g>
<defs>
<clipPath id="clip0_2_1924">
<rect width="50" height="50" fill="white"/>
</clipPath>
</defs>
</svg>
