<svg width="50" height="50" viewBox="0 0 50 50" fill="none" xmlns="http://www.w3.org/2000/svg">
<g clip-path="url(#clip0_2_1913)">
<path d="M19.0417 17.4861C18.8335 17.1822 18.5132 16.9735 18.1512 16.9058C17.7891 16.838 17.415 16.9169 17.1111 17.125L8.04167 23.3056C7.85547 23.4331 7.70316 23.6041 7.59792 23.8038C7.49268 24.0034 7.43768 24.2257 7.43768 24.4514C7.43768 24.6771 7.49268 24.8994 7.59792 25.099C7.70316 25.2987 7.85547 25.4697 8.04167 25.5972L17.1111 31.7778C17.2615 31.8835 17.4314 31.9583 17.6109 31.9979C17.7904 32.0375 17.976 32.041 18.1569 32.0083C18.3378 31.9756 18.5104 31.9073 18.6647 31.8074C18.819 31.7075 18.9519 31.578 19.0558 31.4263C19.1597 31.2747 19.2324 31.1039 19.2698 30.9239C19.3071 30.7439 19.3084 30.5583 19.2735 30.3778C19.2386 30.1974 19.1682 30.0256 19.0664 29.8725C18.9646 29.7195 18.8335 29.5881 18.6806 29.4861L11.2917 24.4583L18.6806 19.4444C18.8349 19.3413 18.967 19.2082 19.0691 19.0532C19.1711 18.8981 19.241 18.7241 19.2747 18.5415C19.3084 18.359 19.3051 18.1715 19.2651 17.9902C19.225 17.8089 19.1491 17.6375 19.0417 17.4861Z" fill="black"/>
<path d="M41.9583 23.3056L32.8889 17.125C32.5813 16.9169 32.2037 16.8395 31.839 16.9098C31.4743 16.9801 31.1526 17.1924 30.9444 17.5C30.7363 17.8076 30.6589 18.1852 30.7292 18.5499C30.7996 18.9146 31.0119 19.2363 31.3194 19.4445L38.7083 24.4861L31.3194 29.5278C31.0205 29.7379 30.8164 30.0574 30.7514 30.417C30.6865 30.7766 30.7658 31.1473 30.9723 31.4488C31.1787 31.7503 31.4957 31.9582 31.8545 32.0276C32.2132 32.097 32.5849 32.0222 32.8889 31.8195L41.9583 25.6389C42.1445 25.5114 42.2968 25.3404 42.4021 25.1407C42.5073 24.941 42.5623 24.7188 42.5623 24.4931C42.5623 24.2674 42.5073 24.0451 42.4021 23.8454C42.2968 23.6458 42.1445 23.4748 41.9583 23.3472V23.3056Z" fill="black"/>
<path d="M27.6944 13.6528C27.5349 13.6134 27.369 13.6058 27.2065 13.6306C27.044 13.6554 26.888 13.7119 26.7474 13.7971C26.6067 13.8822 26.4843 13.9943 26.387 14.1268C26.2898 14.2593 26.2196 14.4098 26.1806 14.5694L21.4028 33.7361C21.3634 33.8957 21.3558 34.0615 21.3806 34.224C21.4054 34.3866 21.4619 34.5426 21.5471 34.6832C21.6322 34.8238 21.7443 34.9463 21.8768 35.0435C22.0093 35.1408 22.1598 35.211 22.3194 35.25H22.625C22.9027 35.2492 23.1722 35.1559 23.391 34.9849C23.6098 34.8139 23.7655 34.5748 23.8333 34.3056L28.6111 15.125C28.6784 14.8087 28.6206 14.4786 28.4496 14.2041C28.2787 13.9295 28.008 13.7319 27.6944 13.6528Z" fill="black"/>
</g>
<defs>
<clipPath id="clip0_2_1913">
<rect width="50" height="50" fill="white"/>
</clipPath>
</defs>
</svg>
