<svg width="50" height="50" viewBox="0 0 50 50" fill="none" xmlns="http://www.w3.org/2000/svg">
<g clip-path="url(#clip0_2_1884)">
<path d="M25 3.47223C12.75 3.47223 2.77777 12.1945 2.77777 22.9167C2.77777 33.6389 12.75 42.3611 25 42.3611C27.2919 42.3585 29.5725 42.0407 31.7778 41.4167L39.4583 46.3056C39.668 46.4401 39.91 46.5157 40.159 46.5246C40.4079 46.5335 40.6547 46.4752 40.8734 46.3559C41.0921 46.2366 41.2747 46.0607 41.402 45.8466C41.5294 45.6324 41.5968 45.388 41.5972 45.1389V35.7917C43.3351 34.1246 44.7218 32.1266 45.6759 29.9155C46.63 27.7044 47.1322 25.3248 47.1528 22.9167C47.2222 12.1945 37.25 3.47223 25 3.47223ZM39.2917 34.1806C39.152 34.3101 39.0405 34.4669 38.9641 34.6413C38.8876 34.8157 38.8478 35.004 38.8472 35.1945V42.6111L32.7639 38.7361C32.5942 38.6289 32.4033 38.5597 32.2043 38.5333C32.0052 38.5069 31.8029 38.524 31.6111 38.5833C29.4704 39.2482 27.2415 39.5853 25 39.5833C14.2778 39.5833 5.55555 32.1111 5.55555 22.9167C5.55555 13.7222 14.2778 6.25001 25 6.25001C35.7222 6.25001 44.4444 13.7222 44.4444 22.9167C44.4128 25.0487 43.9384 27.1509 43.0514 29.0899C42.1643 31.029 40.884 32.7625 39.2917 34.1806Z" fill="black"/>
<path d="M34.7222 21.5278H15.2778C14.9094 21.5278 14.5561 21.6741 14.2957 21.9346C14.0352 22.195 13.8889 22.5483 13.8889 22.9167C13.8889 23.285 14.0352 23.6383 14.2957 23.8988C14.5561 24.1592 14.9094 24.3055 15.2778 24.3055H34.7222C35.0906 24.3055 35.4438 24.1592 35.7043 23.8988C35.9648 23.6383 36.1111 23.285 36.1111 22.9167C36.1111 22.5483 35.9648 22.195 35.7043 21.9346C35.4438 21.6741 35.0906 21.5278 34.7222 21.5278Z" fill="black"/>
<path d="M30.2083 28.4722H19.7917C19.4233 28.4722 19.07 28.6186 18.8096 28.879C18.5491 29.1395 18.4028 29.4928 18.4028 29.8611C18.4028 30.2295 18.5491 30.5827 18.8096 30.8432C19.07 31.1037 19.4233 31.25 19.7917 31.25H30.2083C30.5767 31.25 30.93 31.1037 31.1904 30.8432C31.4509 30.5827 31.5972 30.2295 31.5972 29.8611C31.5972 29.4928 31.4509 29.1395 31.1904 28.879C30.93 28.6186 30.5767 28.4722 30.2083 28.4722Z" fill="black"/>
<path d="M15.6667 17.3611H34.3333C34.7017 17.3611 35.055 17.2148 35.3154 16.9543C35.5759 16.6939 35.7222 16.3406 35.7222 15.9722C35.7222 15.6039 35.5759 15.2506 35.3154 14.9901C35.055 14.7297 34.7017 14.5833 34.3333 14.5833H15.6667C15.2983 14.5833 14.945 14.7297 14.6846 14.9901C14.4241 15.2506 14.2778 15.6039 14.2778 15.9722C14.2778 16.3406 14.4241 16.6939 14.6846 16.9543C14.945 17.2148 15.2983 17.3611 15.6667 17.3611Z" fill="black"/>
</g>
<defs>
<clipPath id="clip0_2_1884">
<rect width="50" height="50" fill="white"/>
</clipPath>
</defs>
</svg>
