<svg width="50" height="50" viewBox="0 0 50 50" fill="none" xmlns="http://www.w3.org/2000/svg">
<g clip-path="url(#clip0_2_1900)">
<path d="M40.6806 6.94443H37.5V9.72221H40.2778V44.4444H9.72222V9.72221H12.5V6.94443H9.72222C9.38209 6.89524 9.03539 6.91873 8.705 7.01337C8.37461 7.10801 8.06805 7.27163 7.80555 7.49345C7.54304 7.71527 7.33056 7.99023 7.18213 8.3002C7.0337 8.61016 6.95269 8.94808 6.94444 9.29166V44.875C6.94626 45.1851 7.00914 45.4917 7.12948 45.7775C7.24982 46.0633 7.42527 46.3225 7.64581 46.5405C7.86635 46.7585 8.12766 46.9308 8.41482 47.0478C8.70198 47.1648 9.00938 47.224 9.31944 47.2222H40.6806C40.9906 47.224 41.298 47.1648 41.5852 47.0478C41.8723 46.9308 42.1337 46.7585 42.3542 46.5405C42.5747 46.3225 42.7502 46.0633 42.8705 45.7775C42.9909 45.4917 43.0537 45.1851 43.0556 44.875V9.29166C43.0537 8.98159 42.9909 8.67492 42.8705 8.38915C42.7502 8.10338 42.5747 7.84411 42.3542 7.62615C42.1337 7.40819 41.8723 7.23581 41.5852 7.11884C41.298 7.00187 40.9906 6.9426 40.6806 6.94443Z" fill="black"/>
<path d="M36.1111 10.1805C36.1075 9.3234 35.7653 8.50241 35.1592 7.89631C34.5531 7.29021 33.7321 6.94809 32.875 6.94444H30.375C30.069 5.74942 29.374 4.69022 28.3996 3.93383C27.4251 3.17743 26.2266 2.76688 24.9931 2.76688C23.7595 2.76688 22.561 3.17743 21.5865 3.93383C20.6121 4.69022 19.9171 5.74942 19.6111 6.94444H17.125C16.2679 6.94809 15.4469 7.29021 14.8408 7.89631C14.2347 8.50241 13.8925 9.3234 13.8889 10.1805V15.2778H36.1111V10.1805ZM33.3333 12.5H16.6667V10.1805C16.6667 10.1204 16.6785 10.0608 16.7016 10.0052C16.7246 9.94954 16.7583 9.89902 16.8009 9.85646C16.8435 9.8139 16.894 9.78014 16.9496 9.7571C17.0052 9.73407 17.0648 9.72221 17.125 9.72221H22.2222V8.33332C22.2222 7.59661 22.5149 6.89007 23.0358 6.36914C23.5567 5.84821 24.2633 5.55555 25 5.55555C25.7367 5.55555 26.4432 5.84821 26.9642 6.36914C27.4851 6.89007 27.7778 7.59661 27.7778 8.33332V9.72221H32.875C32.9966 9.72221 33.1131 9.7705 33.1991 9.85646C33.285 9.94241 33.3333 10.059 33.3333 10.1805V12.5Z" fill="black"/>
<path d="M15.2778 19.4445H34.7222V22.2222H15.2778V19.4445Z" fill="black"/>
<path d="M15.2778 25H34.7222V27.7778H15.2778V25Z" fill="black"/>
<path d="M15.2778 30.5555H34.7222V33.3333H15.2778V30.5555Z" fill="black"/>
<path d="M15.2778 36.1111H34.7222V38.8889H15.2778V36.1111Z" fill="black"/>
</g>
<defs>
<clipPath id="clip0_2_1900">
<rect width="50" height="50" fill="white"/>
</clipPath>
</defs>
</svg>
