<svg width="50" height="50" viewBox="0 0 50 50" fill="none" xmlns="http://www.w3.org/2000/svg">
<g clip-path="url(#clip0_2_1921)">
<path d="M13.8889 25C13.8889 23.1945 12.7778 21.6667 11.1111 21.1111V16.3889C12.7778 15.8333 13.8889 14.3056 13.8889 12.5C13.8889 10.1389 12.0833 8.33334 9.72222 8.33334C7.36111 8.33334 5.55556 10.1389 5.55556 12.5C5.55556 14.3056 6.66667 15.8333 8.33334 16.3889V21.1111C6.66667 21.6667 5.55556 23.1945 5.55556 25C5.55556 26.8056 6.66667 28.3333 8.33334 28.8889V33.6111C6.66667 34.1667 5.55556 35.6945 5.55556 37.5C5.55556 39.8611 7.36111 41.6667 9.72222 41.6667C12.0833 41.6667 13.8889 39.8611 13.8889 37.5C13.8889 35.6945 12.7778 34.1667 11.1111 33.6111V28.8889C12.7778 28.3333 13.8889 26.8056 13.8889 25ZM43.0556 13.8889H20.8333C20 13.8889 19.4444 13.3333 19.4444 12.5C19.4444 11.6667 20 11.1111 20.8333 11.1111H43.0556C43.8889 11.1111 44.4444 11.6667 44.4444 12.5C44.4444 13.3333 43.8889 13.8889 43.0556 13.8889ZM43.0556 26.3889H20.8333C20 26.3889 19.4444 25.8333 19.4444 25C19.4444 24.1667 20 23.6111 20.8333 23.6111H43.0556C43.8889 23.6111 44.4444 24.1667 44.4444 25C44.4444 25.8333 43.8889 26.3889 43.0556 26.3889ZM43.0556 38.8889H20.8333C20 38.8889 19.4444 38.3333 19.4444 37.5C19.4444 36.6667 20 36.1111 20.8333 36.1111H43.0556C43.8889 36.1111 44.4444 36.6667 44.4444 37.5C44.4444 38.3333 43.8889 38.8889 43.0556 38.8889Z" fill="black"/>
</g>
<defs>
<clipPath id="clip0_2_1921">
<rect width="50" height="50" fill="white"/>
</clipPath>
</defs>
</svg>
