<svg width="50" height="50" viewBox="0 0 50 50" fill="none" xmlns="http://www.w3.org/2000/svg">
<g clip-path="url(#clip0_2_1890)">
<path d="M43.7083 5.33334C42.3735 4.01392 40.6186 3.2039 38.7486 3.04404C36.8785 2.88419 35.0116 3.38461 33.4722 4.45834C38.4205 6.51858 42.4628 10.2897 44.8611 15.0833C45.7868 13.5633 46.1763 11.7768 45.9674 10.0094C45.7584 8.24196 44.963 6.59558 43.7083 5.33334Z" fill="black"/>
<path d="M15.8611 4.76388C14.3281 3.54635 12.4025 2.93207 10.4476 3.03697C8.49274 3.14188 6.6439 3.95872 5.25 5.33332C3.86761 6.72486 3.04888 8.57862 2.95144 10.5377C2.854 12.4967 3.48474 14.4226 4.72222 15.9444C6.95074 10.9861 10.9112 7.01089 15.8611 4.76388Z" fill="black"/>
<path d="M22.7778 5.68055C19.1515 6.10416 15.7178 7.54011 12.8696 9.82407C10.0214 12.108 7.87368 15.1477 6.67233 18.5953C5.47097 22.0428 5.26448 25.759 6.0765 29.3184C6.88851 32.8778 8.68621 36.1368 11.2639 38.7222L7.72222 42.2639C7.59363 42.3952 7.49217 42.5506 7.42363 42.7211C7.35508 42.8916 7.3208 43.074 7.32273 43.2578C7.32467 43.4416 7.36278 43.6232 7.4349 43.7922C7.50702 43.9613 7.61173 44.1145 7.74305 44.243C7.87437 44.3716 8.02973 44.4731 8.20027 44.5416C8.3708 44.6102 8.55316 44.6445 8.73695 44.6425C8.92073 44.6406 9.10233 44.6025 9.27138 44.5304C9.44044 44.4582 9.59363 44.3535 9.72222 44.2222L13.4167 40.5278C16.7952 43.0844 20.9209 44.4586 25.1577 44.4385C29.3945 44.4185 33.507 43.0052 36.8611 40.4167L40.6667 44.2222C40.9324 44.4498 41.2741 44.5686 41.6237 44.5551C41.9732 44.5416 42.3048 44.3967 42.5522 44.1494C42.7995 43.902 42.9444 43.5704 42.9579 43.2209C42.9714 42.8713 42.8525 42.5296 42.625 42.2639L38.8889 38.5833C41.6925 35.7114 43.5388 32.0422 44.1743 28.0794C44.8098 24.1165 44.2035 20.054 42.4384 16.4494C40.6734 12.8448 37.8362 9.87469 34.3161 7.94662C30.7961 6.01854 26.7656 5.22698 22.7778 5.68055ZM27.1944 41.5278C23.7425 41.9799 20.2356 41.3397 17.1661 39.697C14.0965 38.0543 11.6184 35.4917 10.0797 32.3687C8.54092 29.2458 8.01873 25.7194 8.58642 22.2846C9.1541 18.8497 10.7832 15.6789 13.2449 13.2171C15.7067 10.7554 18.8775 9.12632 22.3124 8.55864C25.7472 7.99096 29.2736 8.51315 32.3965 10.0519C35.5194 11.5907 38.0821 14.0687 39.7248 17.1383C41.3675 20.2078 42.0077 23.7147 41.5555 27.1667C41.0786 30.8083 39.4121 34.1904 36.8151 36.7874C34.2181 39.3844 30.836 41.0508 27.1944 41.5278Z" fill="black"/>
<path d="M34.6111 28.25L26.1944 24.0833V13.1945C26.1944 12.8629 26.0627 12.545 25.8283 12.3106C25.5939 12.0762 25.276 11.9445 24.9444 11.9445C24.6129 11.9445 24.295 12.0762 24.0606 12.3106C23.8261 12.545 23.6944 12.8629 23.6944 13.1945V25.6945L33.5 30.5556C33.7984 30.7011 34.1423 30.7221 34.4562 30.614C34.77 30.5059 35.0281 30.2775 35.1736 29.9792C35.3191 29.6808 35.3401 29.3369 35.232 29.023C35.1239 28.7091 34.8956 28.4511 34.5972 28.3056L34.6111 28.25Z" fill="black"/>
</g>
<defs>
<clipPath id="clip0_2_1890">
<rect width="50" height="50" fill="white"/>
</clipPath>
</defs>
</svg>
