<svg width="50" height="50" viewBox="0 0 50 50" fill="none" xmlns="http://www.w3.org/2000/svg">
<g clip-path="url(#clip0_2_1918)">
<path d="M25 4.16666C19.753 4.26525 14.7594 6.44079 11.1142 10.2161C7.46908 13.9915 5.47005 19.0584 5.55556 24.3055V43.0555H12.7778C13.7848 43.0779 14.7596 42.7002 15.4886 42.005C16.2175 41.3099 16.6412 40.3542 16.6667 39.3472V30.0972C16.6412 29.0903 16.2175 28.1345 15.4886 27.4394C14.7596 26.7443 13.7848 26.3665 12.7778 26.3889H8.33333V24.3055C8.24769 19.795 9.95404 15.4346 13.0783 12.1801C16.2025 8.92572 20.4897 7.04289 25 6.94443C29.5103 7.04289 33.7975 8.92572 36.9217 12.1801C40.046 15.4346 41.7523 19.795 41.6667 24.3055V26.3889H37.2222C36.2152 26.3665 35.2404 26.7443 34.5114 27.4394C33.7825 28.1345 33.3588 29.0903 33.3333 30.0972V39.3611C33.3624 40.3656 33.7877 41.3178 34.5162 42.01C35.2448 42.7021 36.2175 43.078 37.2222 43.0555H44.4444V24.3055C44.53 19.0584 42.5309 13.9915 38.8858 10.2161C35.2406 6.44079 30.247 4.26525 25 4.16666ZM12.7778 29.1667C13.0476 29.1472 13.3143 29.2334 13.5217 29.407C13.7291 29.5807 13.8607 29.8282 13.8889 30.0972V39.3611C13.8607 39.6301 13.7291 39.8776 13.5217 40.0513C13.3143 40.225 13.0476 40.3112 12.7778 40.2917H8.33333V29.1667H12.7778ZM36.1111 39.3472V30.0972C36.1393 29.8282 36.2709 29.5807 36.4783 29.407C36.6857 29.2334 36.9524 29.1472 37.2222 29.1667H41.6667V40.2778H37.2222C36.9524 40.2973 36.6857 40.2111 36.4783 40.0374C36.2709 39.8637 36.1393 39.6162 36.1111 39.3472Z" fill="black"/>
</g>
<defs>
<clipPath id="clip0_2_1918">
<rect width="50" height="50" fill="white"/>
</clipPath>
</defs>
</svg>
