<svg width="50" height="50" viewBox="0 0 50 50" fill="none" xmlns="http://www.w3.org/2000/svg">
<g clip-path="url(#clip0_2_1872)">
<path d="M25.1389 15.2778C19.7222 15.2778 15.4167 19.5833 15.4167 25C15.4167 30.4167 19.7222 34.7222 25.1389 34.7222C30.5556 34.7222 34.8611 30.4167 34.8611 25C34.8611 19.5833 30.5556 15.2778 25.1389 15.2778ZM25.1389 31.9444C21.25 31.9444 18.1944 28.8889 18.1944 25C18.1944 21.1111 21.25 18.0555 25.1389 18.0555C29.0278 18.0555 32.0833 21.1111 32.0833 25C32.0833 28.8889 29.0278 31.9444 25.1389 31.9444Z" fill="black"/>
<path d="M45.5555 20.4167L41.6667 19.1667L40.8333 17.0833L42.7778 13.4722C43.1944 12.6389 43.0555 11.5278 42.3611 10.8333L39.0278 7.49999C38.3333 6.80555 37.2222 6.66666 36.3889 7.08333L32.7778 9.02777L30.6944 8.19444L29.4444 4.30555C29.1667 3.47222 28.3333 2.77777 27.3611 2.77777H22.6389C21.6667 2.77777 20.8333 3.47222 20.6944 4.44444L19.4444 8.33333C18.6111 8.47222 17.9167 8.74999 17.2222 9.16666L13.6111 7.22222C12.7778 6.80555 11.6667 6.94444 10.9722 7.63888L7.63888 10.9722C6.94444 11.6667 6.80555 12.7778 7.22222 13.6111L9.02777 17.0833C8.74999 17.7778 8.47222 18.6111 8.19444 19.3055L4.30555 20.5555C3.47222 20.8333 2.77777 21.6667 2.77777 22.6389V27.3611C2.77777 28.3333 3.47222 29.1667 4.44444 29.4444L8.33333 30.6944L9.16666 32.7778L7.22222 36.3889C6.80555 37.2222 6.94444 38.3333 7.63888 39.0278L10.9722 42.3611C11.6667 43.0555 12.7778 43.1944 13.6111 42.7778L17.2222 40.8333L19.3055 41.6667L20.5555 45.6944C20.8333 46.5278 21.6667 47.2222 22.6389 47.2222H27.3611C28.3333 47.2222 29.1667 46.5278 29.4444 45.6944L30.6944 41.6667L32.7778 40.8333L36.3889 42.7778C37.2222 43.1944 38.3333 43.0555 39.0278 42.3611L42.3611 39.0278C43.0555 38.3333 43.1944 37.2222 42.7778 36.3889L40.8333 32.7778L41.6667 30.6944L45.6944 29.4444C46.5278 29.1667 47.2222 28.3333 47.2222 27.3611V22.6389C47.2222 21.6667 46.5278 20.6944 45.5555 20.4167ZM44.4444 26.9444L39.4444 28.4722L39.3055 29.1667L38.0555 32.0833L37.6389 32.7778L40.1389 37.3611L37.3611 40.1389L32.7778 37.6389L32.0833 38.0555C31.1111 38.6111 30.1389 39.0278 29.1667 39.3055L28.4722 39.4444L26.9444 44.4444H23.0555L21.5278 39.4444L20.8333 39.3055L17.9167 38.0555L17.2222 37.6389L12.6389 40.1389L9.8611 37.3611L12.3611 32.7778L11.9444 32.0833C11.3889 31.1111 10.9722 30.1389 10.6944 29.1667L10.5555 28.4722L5.55555 26.9444V23.0555L10.2778 21.6667L10.5555 20.9722C10.8333 19.8611 11.25 18.8889 11.8055 17.9167L12.2222 17.2222L9.8611 12.6389L12.6389 9.8611L17.0833 12.3611L17.7778 11.9444C18.75 11.3889 19.7222 10.9722 20.8333 10.6944L21.5278 10.4167L23.0555 5.55555H26.9444L28.4722 10.4167L29.1667 10.6944C30.1389 10.9722 31.1111 11.3889 32.0833 11.9444L32.7778 12.3611L37.3611 9.8611L40.1389 12.6389L37.6389 17.2222L38.0555 17.9167C38.6111 18.8889 39.0278 19.8611 39.3055 20.8333L39.4444 21.5278L44.4444 23.0555V26.9444Z" fill="black"/>
</g>
<defs>
<clipPath id="clip0_2_1872">
<rect width="50" height="50" fill="white"/>
</clipPath>
</defs>
</svg>
