<svg width="50" height="50" viewBox="0 0 50 50" fill="none" xmlns="http://www.w3.org/2000/svg">
<g clip-path="url(#clip0_2_1865)">
<path d="M46.6528 8.59722C46.4823 8.45859 46.2814 8.36239 46.0665 8.31652C45.8516 8.27064 45.6289 8.27641 45.4167 8.33333L32.0694 12.5L18.6944 5.70833C18.5116 5.62372 18.3126 5.5799 18.1111 5.5799C17.9096 5.5799 17.7106 5.62372 17.5278 5.70833L3.63888 11.3889C3.38306 11.494 3.16443 11.6731 3.01102 11.9032C2.85761 12.1333 2.77639 12.404 2.77777 12.6806V41.125C2.77891 41.3525 2.8359 41.5762 2.94373 41.7765C3.05157 41.9768 3.20695 42.1475 3.39623 42.2737C3.5855 42.3999 3.80287 42.4777 4.02924 42.5002C4.2556 42.5227 4.48403 42.4892 4.69444 42.4028L18.0556 36.9167L31.375 43.75C31.5727 43.8513 31.7918 43.9037 32.0139 43.9028C32.152 43.9237 32.2925 43.9237 32.4306 43.9028L46.3194 39.5694C46.6121 39.4778 46.8662 39.2918 47.042 39.0405C47.2179 38.7893 47.3057 38.4869 47.2917 38.1806V9.72222C47.2845 9.49694 47.2225 9.27679 47.1112 9.08079C46.9999 8.88479 46.8426 8.71882 46.6528 8.59722ZM44.4444 37.1528L32.8889 40.7639V37.5833H30.6667V40.3611L19 34.375V32.0278H16.7778V34.4167L5.55555 39.0417V13.5972L16.7778 8.97222V12.2361H19V8.98611L30.6667 14.9583V17.875H32.8889V15.2778L44.4444 11.6111V37.1528Z" fill="black"/>
<path d="M30.6667 20.9167H32.8889V26.2083H30.6667V20.9167Z" fill="black"/>
<path d="M30.6667 29.25H32.8889V34.5417H30.6667V29.25Z" fill="black"/>
<path d="M16.7778 15.3611H19V20.6528H16.7778V15.3611Z" fill="black"/>
<path d="M16.7778 23.7917H19V29H16.7778V23.7917Z" fill="black"/>
</g>
<defs>
<clipPath id="clip0_2_1865">
<rect width="50" height="50" fill="white"/>
</clipPath>
</defs>
</svg>
