<svg width="50" height="50" viewBox="0 0 50 50" fill="none" xmlns="http://www.w3.org/2000/svg">
<g clip-path="url(#clip0_2_1896)">
<path d="M36.9167 44.4445H11.9167C11.5483 44.4445 11.195 44.5908 10.9346 44.8513C10.6741 45.1117 10.5278 45.465 10.5278 45.8333C10.5278 46.2017 10.6741 46.555 10.9346 46.8154C11.195 47.0759 11.5483 47.2222 11.9167 47.2222H36.9167C37.285 47.2222 37.6383 47.0759 37.8988 46.8154C38.1592 46.555 38.3056 46.2017 38.3056 45.8333C38.3056 45.465 38.1592 45.1117 37.8988 44.8513C37.6383 44.5908 37.285 44.4445 36.9167 44.4445Z" fill="black"/>
<path d="M24.6528 2.77777C19.4958 2.77777 14.55 4.82638 10.9035 8.47292C7.25694 12.1195 5.20833 17.0652 5.20833 22.2222C5.20833 22.8472 5.20833 23.4583 5.30555 24.0694C5.66346 27.8198 7.10314 31.3854 9.4496 34.3329C11.7961 37.2803 14.9482 39.4826 18.5229 40.6721C22.0976 41.8616 25.9409 41.9869 29.5855 41.033C33.2301 40.0791 36.5192 38.0869 39.0527 35.2987C41.5863 32.5105 43.2554 29.0463 43.857 25.3272C44.4586 21.6082 43.9668 17.7944 42.4415 14.3496C40.9162 10.9048 38.423 7.97732 35.265 5.92299C32.107 3.86866 28.4202 2.77598 24.6528 2.77777ZM24.6528 5.55555C29.0444 5.55937 33.257 7.29632 36.375 10.3889V11.7778C30.8857 9.88754 24.918 9.91201 19.4444 11.8472C19.0072 11.4211 18.4582 11.1274 17.8611 11H17.5139C17.3472 10.4167 17.1944 9.83333 17.0694 9.23611C16.9444 8.63888 16.875 8.11111 16.8056 7.54166C19.2162 6.23941 21.9128 5.55691 24.6528 5.55555ZM20.4861 13.7083C25.5301 12.0193 30.9967 12.0829 36 13.8889C35.3233 17.4175 33.8455 20.7437 31.6806 23.6111C31.075 23.3547 30.4046 23.2931 29.7625 23.435C29.1204 23.5768 28.5384 23.9151 28.0972 24.4028C27.6111 24.125 27.125 23.8472 26.7083 23.5278C23.9046 21.6571 21.5631 19.1731 19.8611 16.2639C20.1362 15.9228 20.3365 15.5277 20.4489 15.1041C20.5614 14.6806 20.5835 14.2382 20.5139 13.8056L20.4861 13.7083ZM14.9306 8.70833C14.9306 9 15.0139 9.30555 15.0694 9.59722C15.1944 10.2083 15.3611 10.8056 15.5278 11.4028C14.9959 11.7177 14.5679 12.1814 14.2964 12.7367C14.0249 13.292 13.9219 13.9146 14 14.5278C11.8074 15.9591 9.84908 17.7206 8.19444 19.75C8.52652 17.5524 9.29477 15.4435 10.454 13.5473C11.6132 11.651 13.14 10.0058 14.9444 8.70833H14.9306ZM14.9306 30.5278C14.3884 30.7098 13.9038 31.0316 13.5258 31.4608C13.1478 31.89 12.8898 32.4114 12.7778 32.9722H11.8889C9.64593 30.297 8.30445 26.9822 8.05555 23.5L8.20833 23.2361C9.94752 20.5394 12.2212 18.2279 14.8889 16.4444C15.2889 16.8622 15.7943 17.164 16.3517 17.318C16.9092 17.472 17.4979 17.4725 18.0556 17.3194C19.9121 20.4597 22.4518 23.1417 25.4861 25.1667C26.0556 25.5417 26.6389 25.8889 27.2222 26.2222C27.1744 26.7535 27.2603 27.2883 27.4722 27.7778C24.9314 29.7975 21.9993 31.2683 18.8611 32.0972C18.4973 31.4174 17.9036 30.8891 17.1861 30.6067C16.4686 30.3243 15.6741 30.3061 14.9444 30.5556L14.9306 30.5278ZM24.6528 38.8611C21.8279 38.8631 19.0497 38.1411 16.5833 36.7639L16.9722 36.6806C17.5249 36.4992 18.0188 36.1729 18.4023 35.7356C18.7859 35.2983 19.045 34.7661 19.1528 34.1944C22.7046 33.29 26.0203 31.6321 28.875 29.3333C29.5532 29.7297 30.3542 29.8611 31.1235 29.7021C31.8928 29.5431 32.5761 29.105 33.0417 28.4722C35.0012 28.9818 37.017 29.2431 39.0417 29.25H39.7778C38.4379 32.1314 36.3021 34.5696 33.6224 36.2774C30.9426 37.9852 27.8305 38.8913 24.6528 38.8889V38.8611ZM33.6944 26.5C33.6931 25.9179 33.5348 25.3469 33.2361 24.8472C35.5475 21.828 37.1561 18.3309 37.9444 14.6111C38.6389 14.9352 39.3241 15.2963 40 15.6944C41.5276 19.304 41.7341 23.3365 40.5833 27.0833C38.2774 27.2616 35.9578 27.0789 33.7083 26.5417L33.6944 26.5Z" fill="black"/>
</g>
<defs>
<clipPath id="clip0_2_1896">
<rect width="50" height="50" fill="white"/>
</clipPath>
</defs>
</svg>
