<svg width="50" height="50" viewBox="0 0 50 50" fill="none" xmlns="http://www.w3.org/2000/svg">
<g clip-path="url(#clip0_2_1876)">
<path d="M25 23.6111C26.9229 23.6111 28.8026 23.0409 30.4014 21.9726C32.0002 20.9043 33.2463 19.3859 33.9822 17.6094C34.718 15.8329 34.9105 13.8781 34.5354 11.9922C34.1603 10.1062 33.2343 8.37391 31.8747 7.01423C30.515 5.65456 28.7826 4.7286 26.8967 4.35347C25.0108 3.97834 23.056 4.17087 21.2795 4.90672C19.503 5.64257 17.9846 6.88869 16.9163 8.48751C15.848 10.0863 15.2778 11.966 15.2778 13.8889C15.2778 16.4674 16.3021 18.9403 18.1254 20.7635C19.9486 22.5868 22.4215 23.6111 25 23.6111ZM25 6.94444C26.3735 6.94444 27.7161 7.35172 28.8581 8.11479C30.0001 8.87785 30.8902 9.96243 31.4158 11.2314C31.9414 12.5003 32.079 13.8966 31.811 15.2437C31.5431 16.5908 30.8817 17.8281 29.9105 18.7993C28.9393 19.7705 27.7019 20.4319 26.3548 20.6999C25.0077 20.9678 23.6114 20.8303 22.3425 20.3047C21.0735 19.7791 19.989 18.889 19.2259 17.747C18.4628 16.605 18.0556 15.2624 18.0556 13.8889C18.0556 12.0471 18.7872 10.2808 20.0895 8.97842C21.3919 7.67608 23.1582 6.94444 25 6.94444Z" fill="black"/>
<path d="M42.3194 33.8472C40.0921 31.4931 37.408 29.6179 34.4313 28.3364C31.4546 27.0549 28.2478 26.3939 25.0069 26.3939C21.7661 26.3939 18.5593 27.0549 15.5826 28.3364C12.6059 29.6179 9.92179 31.4931 7.69444 33.8472C7.21154 34.363 6.94335 35.0434 6.94444 35.75V43.0556C6.94444 43.7923 7.2371 44.4988 7.75804 45.0198C8.27897 45.5407 8.98551 45.8333 9.72222 45.8333H40.2778C41.0145 45.8333 41.721 45.5407 42.242 45.0198C42.7629 44.4988 43.0556 43.7923 43.0556 43.0556V35.75C43.0604 35.0453 42.7973 34.3652 42.3194 33.8472ZM40.2778 43.0556H9.72222V35.7361C11.6906 33.6635 14.0601 32.013 16.6866 30.8851C19.3131 29.7573 22.1416 29.1757 25 29.1757C27.8584 29.1757 30.6869 29.7573 33.3134 30.8851C35.9399 32.013 38.3094 33.6635 40.2778 35.7361V43.0556Z" fill="black"/>
</g>
<defs>
<clipPath id="clip0_2_1876">
<rect width="50" height="50" fill="white"/>
</clipPath>
</defs>
</svg>
