<svg width="50" height="50" viewBox="0 0 50 50" fill="none" xmlns="http://www.w3.org/2000/svg">
<g clip-path="url(#clip0_2_1908)">
<path d="M44.4444 6.94446H5.55555C4.81884 6.94446 4.1123 7.23712 3.59136 7.75805C3.07043 8.27898 2.77777 8.98552 2.77777 9.72224V40.2778C2.77777 41.0145 3.07043 41.721 3.59136 42.242C4.1123 42.7629 4.81884 43.0556 5.55555 43.0556H44.4444C45.1811 43.0556 45.8877 42.7629 46.4086 42.242C46.9296 41.721 47.2222 41.0145 47.2222 40.2778V9.72224C47.2222 8.98552 46.9296 8.27898 46.4086 7.75805C45.8877 7.23712 45.1811 6.94446 44.4444 6.94446ZM5.55555 9.72224H44.4444V12.7778H5.55555V9.72224ZM5.55555 40.2778V15H44.4444V40.2778H5.55555Z" fill="black"/>
<path d="M23.6111 31.9445H31.9444V34.7222H23.6111V31.9445Z" fill="black"/>
<path d="M9.72223 21.7778L19.1528 26.1111L9.72223 30.4306V33.4861L23.0556 27.3611V24.8472L9.72223 18.7222V21.7778Z" fill="black"/>
</g>
<defs>
<clipPath id="clip0_2_1908">
<rect width="50" height="50" fill="white"/>
</clipPath>
</defs>
</svg>
